Coordinates
version=1
nRows=17
nColumns=40
inDegrees=yes

Units are S.I. units (second, meters, Newtons, ...)
Angles are in degrees.

endheader
time	pelvis_tilt	pelvis_list	pelvis_rotation	pelvis_tx	pelvis_ty	pelvis_tz	hip_flexion_r	hip_adduction_r	hip_rotation_r	knee_angle_r	knee_angle_r_beta	ankle_angle_r	subtalar_angle_r	mtp_angle_r	hip_flexion_l	hip_adduction_l	hip_rotation_l	knee_angle_l	knee_angle_l_beta	ankle_angle_l	subtalar_angle_l	mtp_angle_l	lumbar_extension	lumbar_bending	lumbar_rotation	arm_flex_r	arm_add_r	arm_rot_r	elbow_flex_r	pro_sup_r	wrist_flex_r	wrist_dev_r	arm_flex_l	arm_add_l	arm_rot_l	elbow_flex_l	pro_sup_l	wrist_flex_l	wrist_dev_l
     54.24000000	     -3.29756944	     -3.88760334	      3.07863247	      1.13802090	      0.91772484	      0.54781632	     16.24418633	      3.83984628	     -8.67286515	     28.25771782	     28.25771782	     16.66175658	     -8.37413415	     -0.86604080	     24.89944060	    -16.33072558	      2.49220530	     60.37192993	     60.37192993	      0.19746476	    -16.55893374	     -3.64159021	    -10.80833764	      4.88788269	     -0.46228160	     15.49192076	    -20.92627612	     -5.98812885	     48.79823997	     45.45424232	      0.00000000	      0.00000000	      9.74256331	     -9.30978276	     -2.07829631	     31.58900699	     45.31529299	      0.00000000	      0.00000000
     54.26135714	     -3.09879986	     -3.89013915	      3.94039730	      1.13710392	      0.91565991	      0.54921705	     16.32057299	      3.92975258	     -8.81802166	     29.24619569	     29.24619569	     17.22187182	     -9.55898345	     -1.00222106	     26.78691316	    -16.13790442	      3.31567973	     62.38316335	     62.38316335	      0.39216502	    -17.47290179	     -2.13425964	    -11.01600402	      4.85396530	     -0.26577692	     17.86479785	    -21.08230362	     -6.36072201	     49.90702411	     45.44754977	      0.00000000	      0.00000000	      6.93508351	     -8.88931769	     -1.58305199	     29.82270651	     45.22133484	      0.00000000	      0.00000000
     54.28271429	     -2.87195833	     -3.92894400	      4.85993874	      1.13615147	      0.91385302	      0.55050928	     16.26061360	      4.06310754	     -9.07399201	     30.05311955	     30.05311955	     17.83285495	    -10.62235142	     -0.82586664	     28.76113223	    -15.84051082	      4.26195294	     64.35402211	     64.35402211	      2.23082195	    -17.62039511	      3.29282910	    -11.24037304	      4.84161104	      0.11147222	     20.52906318	    -21.39663674	     -6.78154439	     50.20787471	     45.47997982	      0.00000000	      0.00000000	      4.29659878	     -8.58500105	     -0.12837954	     27.80344437	     45.02814996	      0.00000000	      0.00000000
     54.30407143	     -2.70400650	     -3.94341510	      5.78101348	      1.13517327	      0.91234936	      0.55170314	     16.16422682	      4.16411482	     -9.38013876	     30.66480947	     30.66480947	     18.30741476	    -11.60992389	     -0.81253703	     30.46951967	    -15.59307555	      4.95375379	     65.40002012	     65.40002012	      2.58510692	    -18.20800374	      4.44080329	    -11.40803377	      4.79098778	      0.34407046	     22.98666985	    -21.69076112	     -7.20237627	     51.39718386	     45.47174418	      0.00000000	      0.00000000	      1.39530299	     -8.32268076	      0.38133951	     26.29858365	     44.91970936	      0.00000000	      0.00000000
     54.32542857	     -2.45166103	     -3.91361613	      6.66977762	      1.13426063	      0.91163999	      0.55269425	     15.74170106	      4.20804692	     -9.80851348	     30.86797326	     30.86797326	     18.69098080	    -12.12235631	     -0.84835355	     31.78710948	    -15.34490143	      5.43124455	     65.65954794	     65.65954794	      2.90898301	    -18.59725815	      4.70194380	    -11.73898793	      4.67795330	      1.44083840	     25.01306206	    -22.83187434	     -7.62082367	     52.08876926	     45.47799671	      0.00000000	      0.00000000	     -1.06610892	     -8.02826022	      0.49831435	     25.30842745	     44.86177644	      0.00000000	      0.00000000
     54.34678571	     -2.49810847	     -3.91150310	      7.66469823	      1.13297752	      0.91116424	      0.55323477	     15.60236576	      4.24230753	    -10.26596378	     30.92922871	     30.92922871	     19.00114253	    -12.82808965	     -0.31311483	     33.49242939	    -14.66997759	      6.34736478	     65.64004459	     65.64004459	      5.22320003	    -18.58057114	     10.54792820	    -11.70545625	      4.66495917	      1.04909713	     28.34893812	    -22.37452317	     -8.36391012	     52.45620697	     45.52078360	      0.00000000	      0.00000000	     -4.01075975	     -8.13467019	      2.58810285	     24.21256130	     44.48793583	      0.00000000	      0.00000000
     54.36814286	     -2.50069489	     -3.89093252	      8.58172478	      1.13183842	      0.91154697	      0.55350721	     15.13630073	      4.24823663	    -10.84391794	     30.48574602	     30.48574602	     19.11763097	    -13.10157037	     -0.16995688	     34.54803643	    -14.19695249	      6.80998967	     64.31519709	     64.31519709	      5.73566102	    -18.68881959	     10.68060700	    -11.75211765	      4.60182960	      1.45785799	     30.72834403	    -22.89073519	     -8.74812254	     53.72899531	     45.50623280	      0.00000000	      0.00000000	     -6.52342673	     -8.07113105	      3.08593302	     23.50433324	     44.36283643	      0.00000000	      0.00000000
     54.38950000	     -2.74836171	     -3.77366294	      9.42465925	      1.13052233	      0.91229141	      0.55346432	     14.87299791	      4.08924638	    -11.39347308	     29.94233612	     29.94233612	     19.09123286	    -13.28662442	     -0.01173575	     35.49146314	    -13.57070085	      7.10339721	     62.15701578	     62.15701578	      6.25205492	    -18.61987492	     10.72749134	    -11.52470115	      4.36000811	      2.37339202	     32.77506326	    -24.00542030	     -9.11646560	     54.51629873	     45.50629578	      0.00000000	      0.00000000	     -8.53632628	     -8.01346783	      3.16511286	     22.90217628	     44.31223941	      0.00000000	      0.00000000
     54.41085714	     -2.81027471	     -3.71034655	     10.32509306	      1.12934215	      0.91415046	      0.55292999	     13.99180026	      4.02375884	    -12.17618937	     28.60958548	     28.60958548	     18.91299900	    -12.95066553	      0.16826986	     35.83667253	    -12.85793209	      7.58388944	     59.13724202	     59.13724202	      6.58557283	    -18.61569823	     10.65872747	    -11.56104789	      4.31610420	      2.34002300	     35.38065931	    -24.02628229	     -9.45889510	     56.24063864	     45.47416118	      0.00000000	      0.00000000	    -10.96971743	     -7.94249699	      3.68591584	     22.79017454	     44.16217793	      0.00000000	      0.00000000
     54.43221429	     -3.18989283	     -3.56017587	     11.12737892	      1.12795052	      0.91583331	      0.55211816	     13.48753214	      3.72845929	    -13.09031154	     27.37173524	     27.37173524	     18.49541341	    -12.42114161	     -0.45130485	     36.06378232	    -12.13787536	      7.74633745	     55.26888067	     55.26888067	      6.07960439	    -18.42998278	      8.34975411	    -11.33083562	      4.09626591	      2.19469468	     37.93791969	    -23.97959259	     -9.73567069	     58.09872436	     45.43938957	      0.00000000	      0.00000000	    -14.39243698	     -8.43309953	      6.15720855	     25.84471949	     43.61626814	      0.00000000	      0.00000000
     54.45357143	     -3.50978022	     -3.45746605	     11.86045698	      1.12668137	      0.91789356	      0.55104738	     12.73575884	      3.60294190	    -13.77116470	     25.74752628	     25.74752628	     17.83444095	    -12.10245078	     -1.12249822	     35.86652570	    -11.45446511	      7.95471004	     50.81318054	     50.81318054	      5.45938124	    -18.09997544	      6.05649946	    -11.01871014	      3.95991768	      2.97224085	     40.05772044	    -24.88463768	     -9.91121536	     59.47641285	     45.44429862	      0.00000000	      0.00000000	    -16.75671605	    -10.12779914	     16.74831941	     28.26584134	     42.40050015	      0.00000000	      0.00000000
     54.47492857	     -3.90799049	     -3.32538337	     12.51017850	      1.12541041	      0.91990813	      0.54964928	     12.05826550	      3.36607011	    -14.62012650	     24.17571926	     24.17571926	     17.45433053	    -11.24517960	     -1.21424727	     35.44503009	    -10.74385041	      8.10669330	     46.00796996	     46.00796996	      5.16916372	    -17.34408883	      4.89393965	    -10.75075558	      3.76109230	      3.24963822	     42.27495668	    -25.34920471	     -9.84203221	     61.49929039	     45.39179888	      0.00000000	      0.00000000	    -18.85633275	    -10.11661517	     17.11570444	     29.51362050	     42.48531954	      0.00000000	      0.00000000
     54.49628571	     -4.38068908	     -3.18621013	     13.02678723	      1.12421892	      0.92166721	      0.54815828	     11.51701713	      3.17060334	    -15.13341057	     22.71322430	     22.71322430	     17.08996746	    -10.69836577	     -0.96316846	     34.90878388	    -10.09954591	      8.12506966	     41.14226934	     41.14226934	      5.38553104	    -15.94825329	      5.26370959	    -10.31896437	      3.48698531	      3.75377195	     44.60402599	    -25.75831608	     -9.92890892	     62.73594529	     45.36587863	      0.00000000	      0.00000000	    -20.20322286	     -9.89723729	     17.29641741	     29.42555435	     42.45999573	      0.00000000	      0.00000000
     54.51764286	     -4.60083992	     -3.13046406	     13.51274679	      1.12330725	      0.92344061	      0.54643280	     10.60843665	      3.09986429	    -15.87916145	     21.07952440	     21.07952440	     16.79283675	     -9.69745373	     -0.91599793	     33.96010203	     -9.66832746	      8.06129969	     36.28372714	     36.28372714	      5.58823461	    -14.12639091	      5.49711018	    -10.20487110	      3.41429597	      3.93629005	     46.95720572	    -25.76351740	     -9.80524247	     64.41042899	     45.31772639	      0.00000000	      0.00000000	    -21.71632566	     -9.57673804	     17.57872036	     29.68847883	     42.42392929	      0.00000000	      0.00000000
     54.53900000	     -4.94189760	     -3.11637588	     13.90570649	      1.12245526	      0.92447218	      0.54455203	      9.99827773	      3.02205076	    -16.51252663	     19.76357062	     19.76357062	     16.55340436	     -8.84349309	     -0.97510270	     33.13298357	     -9.31077634	      7.84028690	     31.76601436	     31.76601436	      5.77685811	    -12.01393357	      5.87926731	     -9.90536626	      3.32485525	      4.18687148	     49.26824546	    -25.77190015	     -9.62644744	     65.99800023	     45.27070978	      0.00000000	      0.00000000	    -22.94530409	     -9.21490352	     17.86182231	     30.09218012	     42.38912946	      0.00000000	      0.00000000
     54.56035714	     -5.10936308	     -3.20218029	     14.24032819	      1.12184940	      0.92515890	      0.54252650	      9.26572381	      3.08142553	    -17.18893556	     18.55602026	     18.55602026	     16.35378500	     -7.90511205	     -1.19876360	     32.19699346	     -9.14295570	      7.45618898	     27.74716318	     27.74716318	      6.07706319	     -9.67889093	      6.36047002	     -9.77012012	      3.39401237	      4.27324430	     51.49010535	    -25.61123363	     -9.31912087	     67.73061959	     45.21502444	      0.00000000	      0.00000000	    -24.17843693	     -8.82507201	     18.24654760	     30.67681657	     42.34808423	      0.00000000	      0.00000000
     54.58171429	     -5.29818222	     -3.28881913	     14.49576281	      1.12139913	      0.92531834	      0.54033166	      8.71067766	      3.12118368	    -17.62977169	     17.66498181	     17.66498181	     16.27150286	     -7.24043556	     -1.44643442	     31.37716583	     -8.97458499	      6.93221858	     24.37212798	     24.37212798	      6.35942737	     -7.43513381	      6.95837041	     -9.58130170	      3.43543675	      4.45155519	     53.47711969	    -25.37389418	     -9.04111411	     69.22353059	     45.16760216	      0.00000000	      0.00000000	    -25.04246236	     -8.45888069	     18.62294546	     31.15190257	     42.31256802	      0.00000000	      0.00000000
